<svg xmlns="http://www.w3.org/2000/svg" xmlns:xlink="http://www.w3.org/1999/xlink" aria-hidden="true" role="img" class="iconify iconify--logos" width="31.88" height="32" preserveAspectRatio="xMidYMid meet" viewBox="0 0 256 257"><defs><linearGradient id="IconifyId1813088fe1fbc01" x1="-.828%" x2="57.636%" y1="7.652%" y2="78.411%"><stop offset="0%" stop-color="#41D1FF"></stop><stop offset="100%" stop-color="#BD34FE"></stop></linearGradient><linearGradient id="IconifyId1813088fe1fbc02" x1="43.376%" x2="50.316%" y1="2.242%" y2="89.03%"><stop offset="0%" stop-color="#FFEA83"></stop><stop offset="8.333%" stop-color="#FFDD35"></stop><stop offset="100%" stop-color="#FFA800"></stop></linearGradient></defs><path fill="url(#IconifyId1813088fe1fbc01)" d="M255.153 37.936L134.897 252.69c-2.483 4.424-8.835 4.424-11.318 0L3.321 37.936c-2.835-5.051.915-11.164 6.66-11.164h238.512c5.745 0 9.495 6.113 6.66 11.164z"></path><path fill="url(#IconifyId1813088fe1fbc02)" d="M185.432.063L96.772 18.319c-1.112.23-1.91 1.208-1.91 2.343v22.35c0 1.545 1.573 2.585 2.978 1.933l8.281-3.837c1.413-.654 3.057.307 3.12 1.862l.933 22.808c.037.915.656 1.701 1.513 1.921l111.63 28.524c1.7.434 3.198-1.059 2.825-2.735L202.102 1.993a2.404 2.404 0 00-3.131-1.78l-13.539 3.85z"></path></svg>
